 <svg  version="1.0" xmlns="http://www.w3.org/2000/svg"  width="300.000000pt" height="79.000000pt" viewBox="0 0 300.000000 79.000000"  preserveAspectRatio="xMidYMid meet">  <g transform="translate(0.000000,79.000000) scale(0.100000,-0.100000)" fill="#877eff" stroke="none"> <path d="M1112 468 l3 -323 65 0 65 0 5 129 c5 125 6 129 32 149 17 13 34 17 50 13 51 -13 53 -18 58 -158 l5 -133 65 0 65 0 0 152 c0 138 -2 154 -21 180 -46 62 -155 83 -220 42 l-34 -21 0 146 0 146 -70 0 -70 0 2 -322z"/> <path d="M1592 747 c-32 -34 -30 -89 5 -117 52 -41 123 -3 123 64 0 67 -83 101 -128 53z"/> <path d="M2346 749 c-50 -39 -26 -122 40 -135 24 -4 37 0 59 18 36 32 38 78 5 113 -29 31 -68 32 -104 4z"/> <path d="M877 674 c-4 -4 -7 -38 -7 -76 0 -66 -1 -68 -25 -68 -23 0 -25 -3 -25 -50 0 -46 2 -50 24 -50 23 0 24 -2 28 -103 4 -125 22 -165 84 -185 39 -13 106 -10 132 7 22 14 -7 106 -33 106 -39 0 -45 13 -45 96 l0 79 40 0 40 0 0 50 0 50 -40 0 -39 0 -3 73 -3 72 -60 3 c-34 2 -64 0 -68 -4z"/> <path d="M333 661 c-112 -28 -197 -120 -197 -215 0 -84 65 -170 157 -205 19 -8 24 -15 20 -35 -4 -17 -1 -26 8 -26 19 0 149 79 149 90 0 6 -15 10 -33 10 -45 0 -136 28 -170 52 -70 50 -77 159 -15 218 34 33 97 60 141 60 36 0 38 2 35 28 -2 22 -8 27 -33 29 -16 1 -44 -2 -62 -6z"/> <path d="M1844 526 c-52 -23 -74 -54 -74 -106 0 -55 22 -81 103 -120 59 -28 72 -56 33 -66 -17 -4 -40 1 -68 14 -23 12 -45 19 -50 16 -4 -3 -17 -23 -28 -44 l-20 -39 22 -15 c35 -23 118 -38 168 -31 100 15 140 53 140 134 0 53 -29 85 -105 114 -45 17 -60 28 -60 43 0 15 7 19 35 18 19 0 46 -4 60 -8 23 -6 28 -3 43 29 9 20 17 40 17 44 0 29 -160 41 -216 17z"/> <path d="M2594 526 c-46 -20 -74 -62 -74 -109 0 -32 6 -46 34 -71 18 -18 55 -40 80 -50 38 -15 47 -22 44 -40 -5 -34 -53 -30 -129 11 -9 5 -49 -60 -49 -79 0 -27 78 -53 155 -52 112 2 166 41 167 123 0 23 -7 53 -17 67 -14 22 -74 56 -138 78 -11 3 -17 13 -15 23 4 19 50 23 98 9 23 -6 28 -3 43 29 9 20 17 40 17 44 0 29 -159 41 -216 17z"/> <path d="M1580 335 l0 -196 63 3 62 3 3 193 2 192 -65 0 -65 0 0 -195z"/> <path d="M2330 335 l0 -196 63 3 62 3 3 193 2 192 -65 0 -65 0 0 -195z"/> <path d="M430 489 c-30 -16 -63 -38 -73 -48 -18 -18 -17 -18 42 -25 106 -12 180 -57 201 -122 33 -100 -43 -186 -183 -209 -32 -5 -38 -10 -35 -28 3 -19 9 -22 44 -21 81 1 136 24 191 81 56 57 72 106 59 178 -10 53 -64 116 -124 145 -48 23 -52 27 -48 53 7 35 -5 34 -74 -4z"/> <path d="M2154 296 c-74 -33 -63 -144 16 -161 60 -13 122 53 101 108 -20 50 -70 73 -117 53z"/> </g> </svg> 